<svg class="preview-svg" viewBox="0 0 1024 1024" width="200px" height="200px"><path d="M896.5,0.5740000000000691C896.5,0.5740000000000691,128.5,0.5740000000000691,
128.5,0.5740000000000691C58.137,0.5740000000000691,0.5,58.21199999999999,0.5,128.57399999999996C0.5,128.57399999999996,0.5,896.5740000000001,0.5,896.5740000000001C0.5,
967.012,58.137,1024.5,128.426,1024.5C128.426,1024.5,516.816,1024.5,516.816,1024.5C516.816,1024.5,516.816,657.356,516.816,657.356C516.816,657.356,394.174,657.356,394.174,
657.356C394.174,657.356,394.174,497.42999999999995,394.174,497.42999999999995C394.174,497.42999999999995,516.816,497.42999999999995,516.816,497.42999999999995C516.816,
497.42999999999995,516.816,417.28099999999995,516.816,417.28099999999995C516.816,293.74699999999996,608.016,197.00199999999995,724.481,197.00199999999995C724.481,197.00199999999995,
837.486,197.00199999999995,837.486,197.00199999999995C837.486,197.00199999999995,837.486,377.616,837.486,377.616C837.486,377.616,736.351,377.616,736.351,377.616C709.933,377.616,
702.193,392.798,702.193,413.74699999999996C702.193,413.74699999999996,702.193,497.31899999999996,702.193,497.31899999999996C702.193,497.31899999999996,837.523,497.31899999999996,
837.523,497.31899999999996C837.523,497.31899999999996,837.523,657.281,837.523,657.281C837.523,657.281,702.193,657.281,702.193,657.281C702.193,657.281,702.193,1024.5,702.193,1024.5C702.193,
1024.5,896.463,1024.5,896.463,1024.5C966.9,1024.5,1024.388,966.937,1024.388,896.5740000000001C1024.388,896.5740000000001,1024.388,128.5,1024.388,128.5C1024.5,58.136999999999944,966.937,0.5,896.5,
0.5C896.5,0.5,896.5,0.5740000000000691,896.5,0.5740000000000691"></path></svg>
