<svg class="preview-svg" viewBox="0 0 1024 1024" width="200px" height="200px"><path d="M907.97,865.298C907.97,865.298,907.97,433.321,907.97,433.321C907.97,433.321,817.961,433.321,817.961,433.321C826.846,461.321,831.288,490.44000000000005,831.288,520.643C831.288,576.642,817.065,628.31,788.617,675.648C760.169,722.986,721.493,760.431,672.624,787.982C623.756,815.534,570.407,829.31,512.616,829.31C425.071,829.31,350.181,799.182,287.948,738.9639999999999C225.714,678.7470000000001,194.616,605.948,194.616,520.643C194.616,490.44000000000005,199.058,461.321,207.943,433.321C207.943,433.321,113.94,433.321,113.94,433.321C113.94,433.321,113.94,865.298,113.94,865.298C113.94,876.8340000000001,117.822,886.5029999999999,125.625,894.306C133.427,902.109,143.096,905.991,154.632,905.991C154.632,905.991,867.277,905.991,867.277,905.991C878.365,905.991,887.922,902.109,895.949,894.306C903.975,886.5029999999999,907.97,876.8340000000001,907.932,865.298C907.932,865.298,907.97,865.298,907.97,865.298M718.655,509.96500000000003C718.655,454.86199999999997,698.533,407.86,658.326,368.96000000000004C618.118,330.05899999999997,569.548,310.60799999999995,512.653,310.60799999999995C456.206,310.60799999999995,407.86,330.05899999999997,367.653,368.96000000000004C327.446,407.86,307.323,454.86199999999997,307.323,509.96500000000003C307.323,565.069,327.446,612.0699999999999,367.653,650.971C407.86,689.8720000000001,456.206,709.322,512.653,709.322C569.548,709.322,618.118,689.8720000000001,658.326,650.971C698.533,612.0699999999999,718.655,565.069,718.655,509.96500000000003C718.655,509.96500000000003,718.655,509.96500000000003,718.655,509.96500000000003M907.97,269.99C907.97,269.99,907.97,160.00800000000004,907.97,160.00800000000004C907.97,147.57600000000002,903.527,136.78700000000003,894.642,127.678C885.757,118.56899999999996,874.856,114.01400000000001,861.976,114.01400000000001C861.976,114.01400000000001,745.983,114.01400000000001,745.983,114.01400000000001C733.103,114.01400000000001,722.202,118.56899999999996,713.317,127.678C704.432,136.78700000000003,699.989,147.57600000000002,699.989,160.00800000000004C699.989,160.00800000000004,699.989,269.99,699.989,269.99C699.989,282.87,704.432,293.77099999999996,713.317,302.65700000000004C722.202,311.54200000000003,733.103,315.98400000000004,745.983,315.98400000000004C745.983,315.98400000000004,861.976,315.98400000000004,861.976,315.98400000000004C874.856,315.98400000000004,885.757,311.54200000000003,894.642,302.65700000000004C903.527,293.77099999999996,907.97,282.87,907.97,269.99C907.97,269.99,907.97,269.99,907.97,269.99M1024,131.337C1024,131.337,1024,892.663,1024,892.663C1024,928.652,1011.12,959.526,985.323,985.323C959.526,1011.12,928.652,1024,892.663,1024C892.663,1024,131.337,1024,131.337,1024C95.348,1024,64.474,1011.12,38.677,985.323C12.88,959.526,0,928.652,0,892.663C0,892.663,0,131.337,0,131.337C0,95.34799999999996,12.88,64.47400000000005,38.677,38.67700000000002C64.474,12.879999999999995,95.348,0,131.337,0C131.337,0,892.663,0,892.663,0C928.652,0,959.526,12.879999999999995,985.323,38.67700000000002C1011.12,64.47400000000005,1024,95.34799999999996,1024,131.337C1024,131.337,1024,131.337,1024,131.337"></path></svg>
