<svg class="preview-svg" viewBox="0 0 1024 1024" width="200px" height="200px"><path d="M157.992,857.309C157.992,857.309,311.99,857.309,311.99,857.309C311.99,857.309,311.99,394.645,311.99,394.645C311.99,394.645,157.992,394.645,157.992,394.645C157.992,394.645,157.992,857.309,157.992,857.309C157.992,857.309,157.992,857.309,157.992,857.309M321.995,251.99599999999998C321.547,228.88699999999994,313.558,209.77300000000002,297.99,194.65300000000002C282.422,179.53300000000002,261.777,171.99199999999996,235.98,171.99199999999996C210.183,171.99199999999996,189.202,179.53300000000002,172.963,194.65300000000002C156.723,209.77300000000002,148.622,228.88699999999994,148.622,251.99599999999998C148.622,274.65700000000004,156.499,293.659,172.291,309.00300000000004C188.082,324.347,208.615,332,233.964,332C233.964,332,234.636,332,234.636,332C260.881,332,281.974,324.347,297.953,309.00300000000004C313.931,293.659,321.92,274.65700000000004,321.958,251.99599999999998C321.958,251.99599999999998,321.995,251.99599999999998,321.995,251.99599999999998M711.973,857.309C711.973,857.309,865.97,857.309,865.97,857.309C865.97,857.309,865.97,591.985,865.97,591.985C865.97,523.554,849.731,471.774,817.289,436.644C784.846,401.514,741.951,383.967,688.64,383.967C628.198,383.967,581.756,409.951,549.314,461.95500000000004C549.314,461.95500000000004,550.658,461.95500000000004,550.658,461.95500000000004C550.658,461.95500000000004,550.658,394.60699999999997,550.658,394.60699999999997C550.658,394.60699999999997,396.66,394.60699999999997,396.66,394.60699999999997C398.004,423.951,398.004,578.172,396.66,857.2719999999999C396.66,857.2719999999999,550.658,857.2719999999999,550.658,857.2719999999999C550.658,857.2719999999999,550.658,598.5930000000001,550.658,598.5930000000001C550.658,581.682,552.226,569.25,555.325,561.261C562.007,545.693,572.012,532.477,585.34,521.576C598.668,510.67499999999995,615.132,505.22400000000005,634.657,505.22400000000005C686.213,505.22400000000005,711.973,540.13,711.973,609.905C711.973,609.905,711.973,857.235,711.973,857.235C711.973,857.235,711.973,857.309,711.973,857.309M1024,192.00199999999995C1024,192.00199999999995,1024,831.998,1024,831.998C1024,884.898,1005.222,930.108,967.665,967.665C930.108,1005.222,884.898,1024,831.998,1024C831.998,1024,192.002,1024,192.002,1024C139.102,1024,93.892,1005.222,56.335,967.665C18.778,930.108,0,884.898,0,831.998C0,831.998,0,192.00199999999995,0,192.00199999999995C0,139.10199999999998,18.778,93.89200000000005,56.335,56.335000000000036C93.892,18.77800000000002,139.102,0,192.002,0C192.002,0,831.998,0,831.998,0C884.898,0,930.108,18.77800000000002,967.665,56.335000000000036C1005.222,93.89200000000005,1024,139.10199999999998,1024,192.00199999999995C1024,192.00199999999995,1024,192.00199999999995,1024,192.00199999999995"></path></svg>
